<?xml version="1.0" encoding="UTF-8"?>
<svg width="42px" height="30px" viewBox="0 0 42 30" version="1.1" xmlns="http://www.w3.org/2000/svg" xmlns:xlink="http://www.w3.org/1999/xlink">
    <!-- Generator: Sketch 41.1 (35376) - http://www.bohemiancoding.com/sketch -->
    <title>update</title>
    <desc>Created with Sketch.</desc>
    <defs></defs>
    <g id="Page-1" stroke="none" stroke-width="1" fill="none" fill-rule="evenodd">
        <g id="pt2" transform="translate(-260.000000, -707.000000)" fill="#FFE200">
            <path d="M270.2,720.08 C269.68,720.6 269.08,721.04 268.56,721.48 C268.2,721.76 267.84,722 267.44,722.2 C267.12,722.44 266.76,722.56 266.36,722.64 C266.28,722.68 266.16,722.6 266.16,722.52 C266.28,722.16 266.28,721.8 266.56,721.52 C266.6,721.48 266.6,721.44 266.6,721.4 C266.8,720.92 267.28,720.2 267.64,719.8 L267.72,719.72 C267.8,719.64 267.8,719.56 267.76,719.48 C267.68,719.12 267.52,718.8 267.36,718.44 C267.36,718.4 267.32,718.4 267.32,718.36 C267.16,718.2 266.96,718.2 266.84,718.36 C266.52,718.84 265.92,719.48 265.52,719.88 C264.8,720.64 264.04,721.32 263.4,722.12 L263.24,722.28 C263.04,722.36 262.96,722.52 262.84,722.68 C262.52,723.04 262.16,723.36 261.68,723.56 C261.56,723.6 261.44,723.68 261.36,723.6 C261.2,723.48 261.4,723.4 261.4,723.28 L261.6,722.88 C261.72,722.4 262,721.96 262.28,721.56 C262.64,720.96 263.04,720.36 263.44,719.76 C263.56,719.6 263.64,719.4 263.44,719.2 C263.44,719.2 263.4,719.16 263.4,719.12 C263.32,718.68 262.96,718.52 262.68,718.28 C262.64,718.28 262.52,718.28 262.48,718.32 C262.4,718.36 262.36,718.44 262.32,718.48 C262.16,718.92 261.88,719.32 261.64,719.68 L260.76,721.2 C260.52,721.56 260.36,722 260.16,722.36 C260.04,722.56 260.04,722.76 260.08,722.96 L260.24,723.64 C260.36,724.04 260.6,724.32 260.88,724.56 C261.08,724.72 261.36,724.84 261.64,724.88 C261.96,724.92 262.24,724.8 262.52,724.6 C262.92,724.32 263.28,724 263.56,723.56 C263.8,723.2 264.12,722.88 264.4,722.56 C264.52,722.32 264.68,722.12 264.84,721.92 L265.04,721.76 C265.08,721.76 265.12,721.76 265.12,721.8 C265.16,722.16 265.28,722.52 265.4,722.84 C265.72,723.68 266.84,724.16 267.64,723.6 C267.76,723.52 267.88,723.48 267.96,723.4 C268.04,723.36 268.16,723.32 268.2,723.24 C268.52,722.88 268.88,722.56 269.16,722.12 C269.36,721.8 269.64,721.52 269.84,721.2 C269.92,721.12 270,721.04 270.04,720.92 L270.56,719.88 C270.4,719.88 270.28,720 270.2,720.08 Z M262.04,719.84 C262.04,719.68 262.12,719.64 262.24,719.48 L262.28,719.48 L262.32,719.52 C262.24,719.64 262.2,719.84 262.04,719.84 C262.04,719.96 262,720.04 261.92,720.16 C261.92,720.16 261.88,720.12 261.88,720.08 L261.88,720.08 C261.88,719.96 261.92,719.88 262.04,719.84 Z M260.56,722.36 C260.56,722.12 260.84,721.84 260.92,721.56 C261.04,721.4 261.08,721.24 261.16,721.08 C261.24,720.88 261.36,720.72 261.48,720.56 C261.52,720.44 261.64,720.28 261.76,720.2 L261.8,720.2 L261.76,720.24 L261.76,720.4 C261.52,720.68 261.36,721 261.2,721.36 L261.2,721.4 C261.04,721.56 260.88,721.8 260.84,722.08 C260.84,722.2 260.68,722.28 260.68,722.44 C260.6,722.52 260.6,722.64 260.56,722.76 C260.56,722.8 260.56,722.8 260.52,722.8 L260.52,722.76 C260.52,722.68 260.52,722.56 260.56,722.36 Z M260.76,723.08 C260.76,723.12 260.8,723.12 260.76,723.16 L260.72,723.16 C260.68,723.16 260.68,723.12 260.72,723.08 L260.76,723.08 Z M262.28,720.4 L262.24,720.4 L262.28,720.36 C262.28,720.36 262.28,720.4 262.32,720.44 L262.28,720.4 Z M261.32,721.76 C261.32,721.84 261.24,721.88 261.28,722 C261.28,722.12 261.16,722.2 261.08,722.32 L261.04,722.36 C261.04,722.32 261,722.28 261.04,722.24 C261.04,722.16 261.04,722.16 261.08,722.08 C261.12,721.96 261.2,721.88 261.28,721.76 C261.28,721.72 261.32,721.76 261.32,721.76 Z M260.88,722.68 C260.92,722.64 260.96,722.56 260.96,722.52 C261.04,722.52 261.12,722.48 261.2,722.44 C261.2,722.4 261.24,722.44 261.24,722.44 C261.28,722.44 261.28,722.48 261.28,722.48 C261.24,722.56 261.24,722.6 261.24,722.68 C261.2,722.76 261.2,722.68 261.12,722.68 C261.04,722.68 260.92,722.72 260.88,722.68 Z M261.72,721.48 C261.72,721.52 261.68,721.56 261.64,721.6 C261.64,721.64 261.64,721.64 261.6,721.6 C261.6,721.6 261.56,721.6 261.56,721.56 C261.6,721.52 261.64,721.48 261.68,721.4 C261.68,721.4 261.72,721.4 261.72,721.36 C261.72,721.4 261.76,721.44 261.72,721.48 Z M261.439755,721.971249 C261.436416,722.05092 261.4,722.163668 261.4,722.24 C261.4,722.28 261.36,722.28 261.36,722.28 C261.36,722.28 261.32,722.28 261.32,722.24 C261.36,722.16 261.4,722.08 261.4,722 C261.4,722 261.41692,721.98308 261.439755,721.971249 L261.439755,721.971249 Z M262.04,721.035343 L262.04,720.92 C262.04,720.84 262.08,720.8 262.16,720.8 C262.16,720.84 262.12,720.92 262.12,720.96 C262.088162,720.991838 262.081666,721.023675 262.04,721.035343 L262.04,721.035343 Z M261.48,721.96 C261.44,721.92 261.44,721.92 261.48,721.88 C261.52,721.88 261.52,721.8 261.52,721.76 L261.56,721.76 C261.6,721.8 261.56,721.88 261.52,721.96 L261.44,721.96 L261.48,721.96 Z M261.32,721.76 C261.32,721.72 261.36,721.64 261.36,721.56 C261.36,721.56 261.4,721.56 261.4,721.52 C261.44,721.52 261.44,721.56 261.44,721.56 C261.44,721.64 261.44,721.76 261.32,721.76 Z M262,721.04 L262.04,721.08 C262,721.04 262,721.04 261.92,721.08 L262,721.04 Z M261.52,721.4 L261.52,721.36 C261.52,721.32 261.56,721.36 261.56,721.4 L261.52,721.4 Z M261.88,720.84 C261.8,720.88 261.8,720.88 261.76,720.88 C261.8,720.84 261.8,720.84 261.8,720.8 C261.8,720.8 261.84,720.84 261.88,720.84 Z M261.8,721.24 L261.84,721.24 C261.84,721.24 261.88,721.24 261.88,721.28 L261.84,721.28 L261.8,721.24 Z M260.96,722.52 L260.96,722.44 L260.96,722.52 Z M264.2,722.08 C263.96,722.4 263.76,722.52 263.6,722.72 C263.48,722.84 263.36,722.96 263.2,723.08 C263.08,723.24 262.92,723.36 262.76,723.48 C262.64,723.56 262.52,723.64 262.36,723.72 L262.32,723.68 L262.36,723.64 C262.36,723.64 262.4,723.56 262.44,723.52 C262.76,723.32 263.04,723.08 263.28,722.8 L263.32,722.8 C263.52,722.68 263.72,722.52 263.8,722.24 C263.88,722.16 264.04,722.08 264.12,721.96 C264.2,721.92 264.64,721.48 264.68,721.36 L264.76,721.36 L264.72,721.4 C264.72,721.48 264.28,721.92 264.2,722.08 Z M262.16,723.84 C262.16,723.8 262.12,723.8 262.16,723.76 L262.2,723.76 C262.24,723.76 262.2,723.8 262.2,723.84 L262.16,723.84 Z M275.76,719.4 C275.76,719.16 275.68,718.92 275.56,718.68 L275.32,718.36 C274.88,717.76 274,717.68 273.52,718 C273,718.32 272.6,718.72 272.12,719.08 C272.04,719.16 271.96,719.28 271.84,719.28 L272,718.28 C272.04,718.08 271.96,717.96 271.8,717.84 C271.6,717.72 271.36,717.76 271.16,717.68 C271,717.64 270.88,717.72 270.8,717.84 L270.6,718.12 L269.92,719.56 C269.6,720.2 269.32,720.84 268.96,721.48 C268.72,721.84 268.52,722.24 268.36,722.64 C268.32,722.76 268.28,722.92 268.2,723.04 C267.76,723.96 267.28,724.84 266.88,725.76 C266.56,726.52 266.2,727.28 265.84,728.04 L265.32,729.24 L265.04,729.84 C264.88,730.48 264.64,731.12 264.32,731.72 C264.24,731.92 264.16,732.12 264.12,732.32 C263.96,732.84 263.8,733.4 263.6,733.92 C263.44,734.36 263.36,734.8 263.28,735.2 C263.24,735.36 263.28,735.56 263.36,735.68 C263.56,736 263.8,736.32 264.2,736.44 C264.52,736.56 264.76,736.48 264.88,736.16 C265,735.84 265.16,735.56 265.24,735.28 L265.44,734.36 L265.52,734.04 C265.64,733.84 265.64,733.6 265.6,733.36 C265.52,733.48 265.4,733.6 265.28,733.68 C265.24,733.76 265.16,733.84 265.08,733.92 C265.08,733.8 265,733.68 265.04,733.6 C265.28,733.32 265.28,732.88 265.48,732.56 C265.6,732.4 265.6,732.24 265.4,732.08 C265.32,732.04 265.4,731.88 265.48,731.88 C265.68,731.92 265.76,731.84 265.84,731.68 C265.88,731.56 265.96,731.44 265.96,731.32 C265.92,731.04 266.08,730.84 266.2,730.6 C266.28,730.52 266.32,730.44 266.36,730.32 C266.64,729.76 266.84,729.2 267.12,728.6 C267.2,728.44 267.2,728.32 267.04,728.16 L267.04,728.04 C267.36,728.08 267.44,727.84 267.56,727.64 L267.88,726.8 L268.52,725.52 C268.6,725.36 268.64,725.16 268.6,724.96 L268.72,725.04 C268.72,724.84 268.84,724.64 269.08,724.56 C269.08,724.56 269.08,724.52 269.12,724.48 L269.72,723.6 L270.36,722.68 C271.44,721.32 272.6,719.96 274.04,718.92 L274.12,718.84 C274.24,718.8 274.36,718.68 274.44,718.72 C274.76,718.8 274.52,719.76 274.44,719.72 C274.4,719.84 274.4,719.96 274.4,720.04 C274.4,720.12 274.32,720.2 274.32,720.24 C274.08,721 273.72,721.56 273.24,722.2 L272.88,722.64 C272.6,723.04 272.16,723.28 271.72,723.36 C271.4,723.44 271.08,723.48 270.76,723.4 C270.76,723.36 270.68,723.4 270.68,723.4 L270.68,723.56 C271.16,724.04 271.72,724.32 272.36,724.44 C272.64,724.52 272.92,724.48 273.2,724.28 C273.32,724.16 273.48,724.08 273.64,724 C273.84,723.88 274,723.72 274.08,723.52 C274.2,723.28 274.32,723.2 274.52,722.96 C274.64,722.72 274.84,722.52 274.96,722.28 C275.04,722.16 275.08,722.04 275.12,721.92 C275.28,721.68 275.12,721.96 275.28,721.68 C275.44,721.36 275.6,721.08 275.68,720.72 C275.72,720.56 275.72,720.4 275.68,720.24 C275.72,720.12 275.84,719.72 275.76,719.56 L275.76,719.4 Z M265.68,729.6 L265.28,730.48 L265.08,731.12 C265.04,731.24 264.96,731.36 264.88,731.48 C264.84,731.48 264.84,731.44 264.84,731.4 C264.88,731.08 265,730.8 265.2,730.52 C265.2,730.52 265.24,730.52 265.28,730.48 C265.24,730.32 265.2,730.2 265.32,730.04 L265.68,729.4 L265.68,729.6 Z M264.56,732.44 C264.44,732.72 264.32,733 264.16,733.28 C264.2,732.88 264.28,732.48 264.56,732.2 C264.56,732.28 264.6,732.36 264.56,732.44 Z M265.96,728.84 C265.96,728.88 265.92,728.88 265.88,728.92 C265.96,728.52 266.2,728.2 266.36,727.84 C266.36,727.76 266.44,727.72 266.48,727.68 C266.36,728.12 266.2,728.48 265.96,728.84 Z M264.56,732.16 C264.56,731.88 264.64,731.68 264.88,731.52 C264.84,731.76 264.76,732 264.56,732.16 Z M272.16,719.4 C272.28,719.16 272.44,719 272.68,718.96 C272.56,719.12 272.4,719.32 272.16,719.4 Z M263.96,733.84 C263.96,733.64 264,733.44 264.16,733.32 C264.2,733.52 264.12,733.68 263.96,733.84 Z M267.48,725.6 C267.4,725.76 267.36,725.92 267.2,726 C267.28,725.84 267.32,725.68 267.4,725.56 C267.4,725.52 267.44,725.52 267.48,725.52 L267.48,725.6 Z M271.32,720.28 C271.32,720.12 271.4,720 271.6,719.96 L271.32,720.28 Z M273.12,718.56 C273.2,718.44 273.28,718.4 273.44,718.36 C273.36,718.48 273.28,718.56 273.12,718.56 Z M265.8,729.24 C265.8,729.12 265.8,729 265.88,728.92 C265.88,729.04 265.88,729.16 265.8,729.24 Z M267.84,724.76 C267.84,724.68 267.84,724.6 267.92,724.52 C267.92,724.64 267.92,724.72 267.84,724.76 Z M263.76,734.84 C263.76,734.88 263.72,734.92 263.68,734.96 L263.68,734.8 C263.68,734.8 263.72,734.76 263.72,734.72 C263.72,734.76 263.76,734.8 263.76,734.84 Z M267.12,726.2 C267.12,726.12 267.12,726.04 267.2,726 C267.2,726.08 267.2,726.16 267.12,726.2 Z M263.88,734.2 L263.96,733.88 C263.96,734 264,734.12 263.88,734.2 Z M263.84,734.4 L263.84,734.44 C263.84,734.4 263.8,734.4 263.8,734.36 C263.8,734.32 263.84,734.28 263.88,734.2 C263.88,734.28 263.88,734.32 263.84,734.4 Z M267.92,724.52 C267.92,724.44 267.96,724.36 268.04,724.32 C268,724.4 268,724.48 267.92,724.52 Z M265.08,733.92 L265.08,734.04 L265.04,734.08 C265.04,734.04 265,734 265,734 C265,733.96 265.04,733.96 265.08,733.92 Z M265.8,731.16 C265.8,731.12 265.76,731.12 265.76,731.08 C265.76,731.04 265.8,731.04 265.8,731 L265.84,731.04 C265.84,731.08 265.84,731.12 265.8,731.16 Z M267.72,724.96 C267.72,724.88 267.72,724.8 267.8,724.76 C267.8,724.84 267.76,724.88 267.72,724.96 Z M266.72,727.12 L266.8,726.92 C266.8,727 266.8,727.08 266.72,727.12 Z M266.76,728.88 C266.76,728.88 266.76,728.92 266.72,728.92 C266.72,728.88 266.68,728.88 266.72,728.84 C266.72,728.84 266.72,728.8 266.76,728.8 L266.76,728.88 Z M263.68,735.08 C263.68,735.08 263.64,735.08 263.64,735.12 C263.64,735.08 263.6,735.04 263.64,735.04 C263.64,735 263.64,735 263.68,735 L263.68,735.08 Z M268.2,724 C268.2,724.04 268.16,724.04 268.12,724.08 C268.16,724.04 268.16,724 268.16,724 L268.16,723.92 C268.2,723.96 268.2,724 268.2,724 Z M266.92,726.64 L267,726.48 C267,726.56 267,726.6 266.92,726.64 Z M267,726.44 C267,726.36 267.04,726.28 267.08,726.24 C267.08,726.28 267.04,726.36 267,726.44 Z M266.8,726.88 C266.84,726.8 266.88,726.76 266.88,726.72 C266.88,726.76 266.88,726.84 266.8,726.88 Z M266.68,727.12 L266.68,727.28 C266.64,727.24 266.64,727.2 266.64,727.2 C266.64,727.16 266.68,727.16 266.68,727.12 Z M265.64,733.32 L265.6,733.36 C265.64,733.36 265.64,733.32 265.64,733.32 Z M280.84,720.36 C280.92,720.24 280.92,720.08 281.04,720 L281.04,720.04 L281.12,720.16 C281.16,720.16 281.2,720.12 281.2,720.12 C281.2,720.04 281.24,719.96 281.24,719.88 L281.04,720 C281.04,719.84 281.08,719.72 281.24,719.64 C281.28,719.52 281.44,719.56 281.48,719.44 C281.52,719.32 281.52,719.28 281.44,719.2 C281.44,719.12 281.4,719 281.52,718.96 C281.52,719 281.56,719 281.56,719.04 L281.6,719 C281.56,719 281.56,719 281.52,718.96 C281.56,718.88 281.6,718.8 281.68,718.76 C281.88,718.64 281.96,718.48 282.04,718.28 C282.08,718.16 282.16,718.04 282.2,717.88 C282.28,717.72 282.36,717.56 282.4,717.4 C282.44,717.24 282.6,717.08 282.56,716.88 C282.56,716.84 282.6,716.8 282.64,716.76 C282.72,716.68 282.8,716.64 282.84,716.56 C282.88,716.44 283.04,716.36 283,716.16 C282.96,715.96 283.16,715.92 283.2,715.76 C283.28,715.48 283.48,715.28 283.6,715.04 C283.84,714.56 284.2,714.08 284.36,713.52 L284.44,713.4 C284.72,713.04 284.92,712.64 285.16,712.28 C285.64,711.64 286.08,710.96 286.48,710.28 C286.64,709.96 286.88,709.68 287.12,709.36 L287.44,708.96 C287.8,708.48 287.68,708.16 287.32,707.84 C287.08,707.68 286.8,707.8 286.56,707.72 C286.48,707.72 286.4,707.68 286.32,707.76 L286.08,707.88 L285.84,708.2 C285.6,708.6 285.24,708.96 285.08,709.4 C285.08,709.44 285.04,709.48 285,709.56 L284.52,710.32 L284.04,711.24 C283.52,712.12 283.04,713 282.6,713.92 C282.24,714.64 281.84,715.36 281.52,716.08 L280.84,717.6 C280.6,718.08 280.32,718.6 280.16,719.16 C280.16,719.2 280.12,719.28 280.08,719.36 C280.04,719.4 279.96,719.44 279.88,719.36 C279.64,719.12 279.28,718.96 278.92,718.84 C278.44,718.72 278,718.72 277.6,719.04 C277.04,719.52 276.64,720.08 276.36,720.72 C276.08,721.28 276,721.92 275.88,722.52 C275.84,722.72 275.84,722.92 275.88,723.12 C276,723.52 276.12,723.88 276.32,724.24 C276.52,724.56 276.8,724.72 277.16,724.8 C277.4,724.88 277.64,724.84 277.8,724.64 C278.04,724.36 278.36,724.12 278.48,723.72 C278.52,723.6 278.56,723.48 278.68,723.44 C278.68,723.52 278.72,723.56 278.72,723.64 C278.6,724.16 278.52,724.64 278.56,725.16 L278.56,725.28 C278.56,725.36 278.52,725.4 278.56,725.48 C278.64,725.68 278.72,725.84 278.84,726 C279.08,726.36 279.36,726.64 279.68,726.88 C279.92,727.04 280.2,727.16 280.48,726.96 C280.52,726.92 280.6,726.92 280.64,726.92 C280.76,726.88 280.84,726.8 280.84,726.68 C280.8,726.48 280.92,726.32 280.96,726.12 C280.96,726.04 281,725.96 281,725.88 C281,725.84 280.92,725.76 280.88,725.8 C280.84,725.84 280.76,725.84 280.68,725.88 C280.52,726 280.4,726.12 280.2,726.16 C279.96,726.24 279.8,726.28 279.8,725.88 C279.8,725.8 279.8,725.72 279.76,725.64 C279.72,725.36 279.72,725.12 279.84,724.88 C279.88,724.8 279.88,724.68 279.88,724.6 L279.88,724.08 C279.92,724 280,723.96 280,723.92 C280,723.84 279.96,723.76 279.92,723.64 C280.04,723.6 280.16,723.48 280.08,723.32 C280.08,723.28 280.04,723.2 280.08,723.2 C280.28,722.92 280.32,722.64 280.44,722.36 C280.48,722.28 280.44,722.2 280.44,722.12 C280.44,722.12 280.4,722.12 280.4,722.08 L280.36,722.12 L280.24,722.36 C280.24,722.48 280.2,722.6 280.08,722.64 C280.04,722.72 280.08,722.8 279.96,722.88 L279.96,722.64 L280.04,722.64 C280.08,722.52 280.04,722.44 280.08,722.32 L280.24,721.84 C280.24,721.72 280.32,721.64 280.44,721.6 C280.6,721.6 280.68,721.52 280.72,721.4 L280.84,721.08 C280.88,720.96 280.88,720.96 280.68,720.92 L280.8,720.4 L280.84,720.36 Z M277.92,723.24 C277.72,723.48 277.52,723.72 277.24,723.88 C277.16,723.88 277.04,723.84 277.04,723.8 C277.04,723.68 277.04,723.6 277,723.6 C277,723.32 277,723.12 277.08,722.92 C277.16,722.52 277.24,722.08 277.4,721.68 L277.52,721.36 C277.8,720.88 278,720.44 278.44,720.08 C278.6,719.96 278.72,719.76 278.84,719.56 C279.04,719.28 279.24,719.4 279.4,719.64 L279.48,719.76 C279.48,719.84 279.48,719.96 279.56,719.96 C279.8,720.16 279.68,720.32 279.6,720.56 C279.48,720.8 279.44,721.12 279.32,721.36 C279.2,721.6 279,721.8 278.84,722.04 C278.56,722.44 278.24,722.88 277.92,723.24 Z M283.52,713.28 L282.92,714.4 L282.76,714.8 C282.68,714.92 282.64,715.04 282.6,715.16 C282.08,716 281.72,716.92 281.32,717.84 L280.92,718.72 C280.84,718.88 280.76,719.04 280.72,719.2 L279.96,720.96 L279.92,721 C279.96,721.28 279.84,721.48 279.76,721.72 C279.68,721.84 279.6,721.96 279.6,722.08 C279.6,722.4 279.44,722.68 279.36,722.96 C279.24,723.28 279.16,723.64 279.08,723.96 L278.96,724.6 C278.92,724.76 278.92,724.92 278.92,725.08 C278.92,725.12 278.88,725.12 278.88,725.12 C278.88,725.12 278.84,725.12 278.84,725.08 C278.84,724.96 278.8,724.8 278.8,724.64 C278.92,724.16 278.96,723.6 279.12,723.12 L279.28,722.64 C279.32,722.16 279.56,721.72 279.68,721.28 C279.72,721.16 279.8,721.04 279.92,721 C279.88,720.72 279.88,720.44 280.08,720.2 L280.68,718.68 L281.16,717.6 C281.32,717.24 281.48,716.88 281.68,716.6 L281.76,716.32 L282.28,715.28 L283.36,713.2 C283.4,713.12 283.44,713.04 283.56,713.04 C283.52,713.12 283.52,713.2 283.52,713.28 Z M279.68,723.32 L279.68,723.24 L279.56,723.24 C279.56,723.16 279.52,723.08 279.56,723.04 C279.6,722.8 279.68,722.56 279.76,722.36 L279.92,722.24 C279.92,722.36 279.92,722.52 279.96,722.64 C279.72,722.76 279.72,723 279.68,723.24 L279.88,723.12 C279.88,723.32 279.88,723.32 279.68,723.32 Z M280.36,720.96 C280.28,721.36 280.12,721.76 279.96,722.2 L279.92,722.2 L279.92,721.92 C279.96,721.72 280,721.56 280.08,721.4 C280.08,721.32 280.08,721.24 280.12,721.2 C280.24,721.08 280.2,720.92 280.36,720.84 L280.36,720.96 Z M279.4,724.24 L279.4,724.28 C279.36,724.4 279.28,724.52 279.48,724.6 C279.56,724.64 279.6,724.72 279.52,724.76 C279.4,724.84 279.36,724.92 279.36,725.04 C279.36,725.08 279.32,725.12 279.28,725.12 L279.28,725 C279.12,724.76 279.24,724.56 279.24,724.32 C279.24,724.32 279.36,724.28 279.4,724.24 Z M279.48,723.32 L279.56,723.24 L279.56,723.36 L279.68,723.36 C279.68,723.44 279.68,723.52 279.84,723.56 C279.88,723.56 279.88,723.6 279.92,723.64 C279.84,723.68 279.72,723.64 279.76,723.76 C279.8,723.84 279.76,723.88 279.72,723.88 C279.6,723.84 279.52,723.8 279.44,723.8 C279.4,723.76 279.36,723.64 279.44,723.6 C279.56,723.56 279.56,723.48 279.56,723.36 C279.52,723.32 279.52,723.32 279.48,723.32 Z M280.68,720.24 C280.64,720.36 280.56,720.44 280.44,720.48 L280.44,720.44 C280.44,720.4 280.4,720.36 280.44,720.36 C280.64,720.12 280.6,719.8 280.8,719.6 C280.84,719.84 280.72,720.04 280.68,720.24 Z M281.04,719.44 L280.88,719.44 C280.92,719.24 280.96,719 281.16,718.88 C281.24,719.08 281.12,719.24 281.04,719.44 Z M283.76,712.68 C283.8,712.4 283.92,712.16 284.12,712 C284.08,712.28 284,712.52 283.76,712.68 Z M279.4,724.2 L279.48,724.04 C279.52,724 279.6,724.04 279.64,724.08 C279.72,724.16 279.68,724.4 279.6,724.4 C279.6,724.44 279.56,724.4 279.56,724.4 L279.44,724.24 L279.4,724.2 Z M279.28,725.76 C279.24,725.76 279.24,725.72 279.24,725.72 C279.2,725.56 279.2,725.4 279.28,725.28 C279.32,725.28 279.36,725.24 279.4,725.24 C279.4,725.28 279.48,725.32 279.48,725.32 C279.4,725.44 279.28,725.56 279.28,725.76 Z M280.92,720.64 C280.96,720.6 281.04,720.56 281.04,720.48 C281.08,720.44 281.04,720.4 281,720.36 L280.88,720.36 L280.88,720.6 C280.88,720.64 280.92,720.64 280.92,720.64 Z M281.36,718.4 C281.36,718.28 281.4,718.16 281.56,718.08 C281.56,718.24 281.52,718.36 281.36,718.4 Z M281.88,717.48 L281.72,717.6 C281.76,717.56 281.76,717.48 281.76,717.44 C281.8,717.32 281.88,717.28 281.92,717.36 C281.92,717.4 281.88,717.44 281.88,717.48 Z M280.36,720.84 C280.36,720.72 280.28,720.6 280.44,720.52 L280.44,720.68 C280.44,720.76 280.4,720.8 280.36,720.84 Z M281.16,718.88 C281.16,718.8 281.16,718.68 281.28,718.68 C281.28,718.76 281.28,718.84 281.16,718.88 Z M283.64,712.88 C283.64,712.8 283.64,712.72 283.76,712.68 C283.76,712.76 283.76,712.84 283.64,712.88 Z M280.6,721.16 C280.6,721.04 280.56,720.96 280.68,720.92 C280.68,721 280.72,721.12 280.6,721.16 Z M281.28,718.64 C281.24,718.56 281.24,718.48 281.36,718.44 C281.36,718.52 281.4,718.6 281.28,718.64 Z M284.44,711.48 C284.4,711.4 284.4,711.32 284.52,711.28 C284.52,711.36 284.52,711.44 284.44,711.48 Z M281.24,719.68 C281.24,719.72 281.24,719.8 281.28,719.88 C281.36,719.76 281.36,719.76 281.24,719.68 Z M279.96,722.88 C279.96,722.96 280,723.04 279.88,723.08 C279.88,723 279.84,722.92 279.96,722.88 Z M280.52,721.36 C280.52,721.28 280.48,721.2 280.6,721.16 C280.6,721.24 280.6,721.32 280.52,721.36 Z M284.24,711.84 C284.24,711.76 284.24,711.68 284.32,711.64 C284.32,711.72 284.32,711.8 284.24,711.84 Z M281.64,717.96 L281.56,718.08 L281.56,717.88 L281.64,717.96 Z M278.76,723.36 C278.76,723.4 278.72,723.4 278.68,723.4 L278.68,723.32 C278.68,723.32 278.72,723.28 278.76,723.28 L278.76,723.36 Z M284.12,711.96 C284.12,711.92 284.16,711.88 284.24,711.88 C284.24,711.92 284.2,711.96 284.12,711.96 Z M280.48,721.92 C280.48,721.88 280.48,721.8 280.52,721.76 L280.48,721.76 C280.44,721.8 280.44,721.84 280.44,721.88 C280.44,721.88 280.48,721.88 280.48,721.92 Z M283.56,713.04 C283.56,712.96 283.6,712.92 283.64,712.92 C283.64,712.96 283.6,713 283.56,713.04 Z M279.2,725.2 C279.24,725.2 279.24,725.16 279.28,725.16 L279.28,725.24 C279.24,725.24 279.24,725.24 279.2,725.2 Z M279.52,725.08 L279.52,724.96 L279.56,724.96 C279.56,725 279.56,725.04 279.52,725.08 Z M281.68,717.72 C281.64,717.64 281.68,717.64 281.72,717.64 C281.72,717.64 281.72,717.68 281.68,717.72 Z M280.48,721.48 C280.4,721.4 280.44,721.4 280.48,721.4 L280.48,721.48 Z M281.4,719.28 C281.32,719.2 281.4,719.2 281.4,719.2 L281.4,719.28 Z M284.32,711.6 C284.32,711.56 284.36,711.52 284.4,711.52 C284.4,711.56 284.36,711.6 284.32,711.6 Z M282.44,716.2 L282.4,716.16 L282.44,716.16 L282.44,716.2 Z M282.32,716.4 L282.36,716.36 L282.36,716.4 L282.32,716.4 Z M282.04,716.88 L282.04,716.84 L282.08,716.88 L282.04,716.88 Z M284.52,711.24 C284.52,711.2 284.56,711.2 284.6,711.16 C284.56,711.2 284.56,711.24 284.52,711.24 Z M290.32,721.56 L289.92,721.96 C289.76,721.96 289.64,722.04 289.52,722.12 C289.68,721.96 291.24,720.56 291.08,720.56 C291.12,720.4 289.2,722.2 289.28,722.08 C289.36,721.92 289.96,721.48 290.16,721.24 L290.16,721.16 C290.12,721.16 290.08,721.12 290.08,721.16 C289.64,721.44 288.96,721.96 288.56,722.28 C288,722.72 287.44,723.12 286.84,723.48 C286.76,723.56 286.64,723.56 286.52,723.6 C286.44,723.6 286.36,723.52 286.4,723.48 L286.6,722.92 C286.8,722.44 286.92,721.96 287.32,721.64 L287.4,721.52 C287.52,721.32 287.56,721.12 287.44,720.88 C287.36,720.72 287.32,720.56 287.28,720.4 C287.24,720.28 287.16,720.2 287.12,720.12 C286.92,719.8 286.68,719.8 286.48,720.12 C286.2,720.56 285.76,720.92 285.44,721.36 C285.12,721.6 284.88,721.88 284.6,722.16 C284.32,722.4 284.04,722.68 283.72,722.92 L283.2,723.24 L283.12,723.24 C283.12,723.2 283.08,723.16 283.08,723.12 C283.2,722.76 283.32,722.4 283.48,722.04 C283.64,721.72 283.88,721.4 284,721.04 C284.08,720.88 284.2,720.76 284.24,720.6 C284.32,720.44 284.48,720.44 284.56,720.28 C284.64,720.12 284.8,719.96 284.88,719.8 C284.96,719.6 285.16,719.52 285.24,719.36 C285.44,719.04 285.76,719 286,718.88 C286.24,718.92 286.4,718.8 286.6,718.72 C286.68,718.68 286.72,718.72 286.8,718.76 C286.92,718.92 287.04,719.12 287.04,719.36 C287.08,719.48 287.08,719.64 287.16,719.76 C287.28,719.92 287.52,719.96 287.64,719.84 C287.68,719.8 287.72,719.72 287.72,719.64 C287.76,719.32 287.68,719.08 287.44,718.84 C287.36,718.76 287.2,718.64 287.12,718.52 C287,718.32 286.8,718.2 286.56,718.12 C286.24,718 285.92,718.16 285.6,718.04 C285.48,718 285.32,718.08 285.2,718.12 C284.68,718.28 284.24,718.6 283.88,719.04 C283.52,719.44 283.2,719.88 282.92,720.36 L282.56,721.12 C282.28,721.6 282.16,722.16 282.16,722.72 C282.16,723.12 282.32,723.44 282.56,723.72 L282.92,724.08 C283.04,724.2 283.2,724.2 283.32,724.16 C283.68,724.08 283.96,723.88 284.12,723.6 C284.24,723.4 284.4,723.24 284.56,723.04 C284.72,722.88 284.88,722.72 285,722.48 C285.04,722.36 285.12,722.24 285.28,722.2 C285.28,722.28 285.32,722.4 285.28,722.52 C285.2,722.76 285.24,723.04 285.28,723.32 C285.32,723.92 285.6,724.36 286.04,724.76 C286.24,724.96 286.44,724.96 286.68,724.88 C286.8,724.84 286.92,724.8 287.04,724.8 C287.32,724.76 287.56,724.68 287.72,724.48 L287.88,724.36 C288.16,724.08 288.52,723.88 288.68,723.52 C288.76,723.32 288.88,723.12 289.08,723.04 C289.16,723 289.2,722.92 289.24,722.88 C289.36,722.68 289.48,722.56 289.64,722.44 L289.96,722.08 C290,722.04 290.36,721.6 290.32,721.56 Z M290.76,720.52 C290.72,720.56 290.68,720.64 290.6,720.68 C290.68,720.72 290.76,720.68 290.84,720.6 C290.84,720.6 290.84,720.56 290.88,720.52 C290.84,720.52 290.8,720.48 290.76,720.52 Z M288.88,722.48 L288.76,722.48 L288.84,722.4 L288.92,722.4 C288.92,722.44 288.88,722.48 288.88,722.48 Z M290.36,720.96 C290.44,720.96 290.48,720.92 290.48,720.88 C290.4,720.88 290.4,720.88 290.36,720.96 Z M290.28,721.08 C290.32,721.08 290.36,721.04 290.36,720.96 C290.32,720.96 290.28,721 290.28,721.08 Z M285.36,722.12 C285.36,722.16 285.32,722.16 285.28,722.16 C285.28,722.16 285.28,722.12 285.32,722.08 C285.32,722.04 285.32,722.04 285.36,722.04 L285.36,722.12 Z M290.96,720.4 C290.92,720.4 290.92,720.44 290.88,720.44 C290.92,720.44 290.96,720.48 291,720.44 L291.04,720.4 L290.96,720.4 Z M290.2,721.16 C290.24,721.12 290.24,721.12 290.24,721.08 C290.2,721.08 290.16,721.08 290.2,721.16 Z M288.52,722.72 L288.52,722.64 C288.6,722.72 288.52,722.72 288.52,722.72 Z M291.04,720.4 L291.08,720.4 L291.08,720.36 L291.04,720.36 L291.04,720.4 Z M288.44,722.8 C288.4,722.72 288.44,722.76 288.48,722.76 L288.44,722.8 Z M290.36,721.48 C290.4,721.48 290.44,721.48 290.4,721.44 L290.36,721.48 Z M290.32,721.56 L290.32,721.52 C290.32,721.52 290.24,721.52 290.32,721.56 Z M290.56,720.72 C290.56,720.76 290.52,720.8 290.52,720.84 C290.52,720.84 290.56,720.76 290.56,720.72 Z M290.6,720.72 L290.6,720.68 C290.6,720.72 290.56,720.72 290.56,720.72 L290.6,720.72 Z M283.64,720.16 C283.64,720.12 283.64,720.08 283.68,720.08 C283.68,720 283.68,719.96 283.76,719.92 C283.76,720 283.8,720.04 283.68,720.08 C283.68,720.12 283.68,720.16 283.64,720.16 C283.64,720.32 283.52,720.4 283.4,720.48 C283.4,720.28 283.48,720.24 283.64,720.16 Z M283.16,720.68 C283.2,720.6 283.28,720.52 283.4,720.48 L283.4,720.52 C283.28,720.76 283.16,720.92 283.04,721.08 L283,721.08 C282.96,720.92 283.12,720.8 283.16,720.68 Z M282.96,721.12 L282.96,721.24 C283,721.32 282.96,721.32 282.88,721.32 L282.88,721.2 C282.88,721.16 282.92,721.12 282.96,721.12 Z M282.88,721.32 C282.88,721.4 282.92,721.48 282.84,721.52 C282.84,721.44 282.8,721.36 282.88,721.32 Z M282.8,721.8 C282.8,721.8 282.76,721.8 282.76,721.76 L282.76,721.56 C282.76,721.56 282.8,721.52 282.84,721.52 C282.92,721.6 282.88,721.68 282.84,721.8 L282.8,721.8 Z M282.88,722.16 L282.88,722.76 C282.88,722.72 282.84,722.72 282.84,722.72 L282.84,722.16 L282.88,722.16 Z M283.04,722.64 L283,722.64 L283,722.2 C283,722.16 283.04,722.16 283.08,722.12 C283.08,722.2 283.12,722.28 283.12,722.32 C283.12,722.4 283.08,722.52 283.04,722.64 Z M283.44,721.28 C283.36,721.36 283.32,721.48 283.32,721.56 L283.32,721.64 C283.2,721.72 283.24,721.84 283.2,721.92 C283.2,722.04 283.16,722.08 283.08,722.12 L283.08,722 C283.08,721.96 283.04,721.92 283.04,721.92 C283,721.92 283,721.96 283,721.96 C282.96,722 282.96,722.04 282.92,722.04 C282.92,722.08 282.88,722.08 282.88,722.04 L282.84,722 C282.96,721.72 283.04,721.48 283.16,721.24 C283.16,721.16 283.08,721.52 283.16,721.6 C283.24,721.52 283.48,721.04 283.44,721 C283.32,720.92 283.36,721.16 283.32,721.08 C283.28,720.92 283.52,720.72 283.64,720.6 C283.68,720.6 283.72,720.48 283.76,720.52 C283.8,720.52 283.88,720.56 283.84,720.6 C283.56,720.88 283.64,721.08 283.44,721.28 Z M283.76,719.92 C283.8,719.92 283.8,719.88 283.8,719.88 C283.8,719.88 283.84,719.88 283.84,719.92 L283.76,719.92 Z M283.92,720.48 C283.88,720.44 283.88,720.44 283.88,720.4 L283.88,720.36 C283.92,720.36 284.12,720.08 284.16,720.12 C284.12,720.12 283.92,720.44 283.92,720.48 Z M284.28,719.4 L284.32,719.4 C284.32,719.4 284.32,719.44 284.28,719.44 L284.28,719.4 Z M284.32,719.36 C284.36,719.36 284.36,719.32 284.36,719.32 C284.4,719.36 284.36,719.36 284.32,719.36 Z M290.24,717.04 C290.2,717.16 290.24,717.28 290.2,717.44 C290.2,717.56 290.28,717.72 290.24,717.84 C290.28,717.92 290.36,718 290.4,718 C290.56,717.8 290.72,717.92 290.88,717.92 C291,717.92 291.12,717.96 291.28,717.92 C291.16,718.16 291.08,718.44 291,718.72 C290.76,719.32 290.56,719.96 290.36,720.56 C290.28,720.84 290.16,721.08 290.12,721.36 C290,721.88 289.96,722.36 289.84,722.88 C289.76,723.16 289.76,723.48 289.8,723.76 C289.88,724.04 290.04,724.32 290.12,724.6 C290.16,724.68 290.2,724.68 290.24,724.72 L290.48,725.04 L290.96,725.52 C291.08,725.64 291.16,725.6 291.28,725.52 C291.44,725.44 291.6,725.32 291.8,725.28 C292,725.24 292.2,725.16 292.36,725 C292.88,724.6 293.52,724.24 293.88,723.64 L294.04,723.52 C294.12,723.4 294.28,723.28 294.24,723.08 C294.24,723.04 294.32,722.96 294.44,723 C294.52,723.04 294.6,722.96 294.6,722.88 C294.56,722.76 294.64,722.68 294.72,722.6 L294.88,722.4 L295.36,721.92 C295.4,721.88 295.56,721.68 295.56,721.6 L295.6,721.44 C295.52,721.6 295.12,721.92 295.08,721.96 L295.96,720.84 C295.6,720.96 294.48,722.08 294.2,722.32 C294.04,722.44 293.96,722.6 293.76,722.6 L293.84,722.48 C294.6,721.76 295.36,721 296.16,720.28 L296.28,720.2 L297.12,719.44 C297.16,719.44 297.12,719.36 297.12,719.36 C297.04,719.32 296.96,719.32 296.88,719.32 C296.76,719.32 296.84,719.44 296.8,719.48 L296.52,719.76 C296.48,719.76 296.44,719.8 296.4,719.84 C296.36,719.92 296.28,719.96 296.24,720 C296.08,719.84 296.08,719.96 296.04,720.08 C296.04,720.12 296,720.16 295.96,720.2 C295.92,720.12 295.88,720.08 295.8,720.12 C295.72,720.2 295.8,720.24 295.84,720.28 C295.68,720.44 295.6,720.64 295.32,720.6 C295.24,720.64 295.12,720.72 295.12,720.88 C295.12,720.92 295.04,721 294.96,721.08 C294.68,721.32 294.44,721.6 294.04,721.72 L293.92,721.84 L292.04,723.52 C291.92,723.6 291.76,723.68 291.64,723.8 C291.48,723.92 291.32,724.04 291.08,724 C290.92,723.84 291,723.6 291,723.4 L291.04,723.36 C291.2,722.6 291.4,721.84 291.64,721.12 L292,720.04 C292.08,719.64 292.32,719.32 292.32,718.88 C292.36,718.84 292.36,718.8 292.4,718.8 C292.6,718.6 292.64,718.32 292.76,718.08 C292.76,718.04 292.8,717.96 292.84,717.88 C292.88,717.88 292.92,717.88 293,717.84 C293,717.88 293.08,717.88 293.12,717.88 C293.36,717.88 293.48,717.72 293.64,717.8 L294,717.8 L294.72,717.72 L294.76,717.72 C296.84,717.44 297.16,717.2 294.96,717.52 C294.92,717.6 294.92,717.52 294.96,717.44 C294.92,717.44 294.92,717.4 294.92,717.36 C294.96,717.32 295.04,717.28 295.08,717.28 C295.24,717.36 295.32,717.36 295.48,717.28 C295.44,717.24 295.44,717.2 295.36,717.2 C295.28,717.2 295.24,717.2 295.12,717.16 C295.2,717.12 295.24,717.12 295.24,717.08 C295.24,717.08 295.28,717.04 295.28,717 C295.32,716.96 295.24,717 295.2,717.04 C295.08,716.96 294.96,716.96 294.76,717.04 C294.64,717.08 294.56,717.08 294.44,717.08 C294.28,717 294.12,717.04 293.92,717.16 C293.92,717.2 293.92,717.2 293.96,717.24 L293.84,717.24 L293.84,717.16 L293.92,717.16 C293.76,717.08 293.64,717.08 293.52,717.08 C293.28,717.16 293.28,716.96 293.12,717.16 L293.04,717.16 L293.16,716.88 C293.2,716.76 293.36,716.64 293.44,716.52 C293.52,716.36 293.64,716.2 293.64,716 L293.64,715.96 C294.68,714.36 294.48,714.08 295.48,712.56 C295.92,712 295.76,712.28 296.08,711.68 C296.24,711.4 296.36,711.16 296.56,710.92 C296.68,710.72 296.72,710.56 296.68,710.32 C296.6,709.8 296.32,709.56 295.8,709.52 C295.48,709.52 295.28,709.64 295.16,709.96 C295.04,710.28 294.88,710.6 294.68,710.92 C293.04,713.64 292.68,714.4 291.68,716.96 C291.36,716.92 291.04,716.92 290.76,716.8 C290.6,716.76 290.4,716.8 290.32,716.92 C290.24,716.96 290.24,716.96 290.24,717.04 Z M290.84,720.52 C290.8,720.56 290.72,720.6 290.68,720.6 C290.72,720.24 290.88,719.88 291,719.52 C291.16,719.12 291.36,718.68 291.48,718.24 C291.52,718.12 291.56,718 291.64,717.88 C291.68,717.88 291.72,717.92 291.8,717.92 L290.92,720.2 L290.84,720.52 Z M294.24,717.36 C294.36,717.4 294.44,717.4 294.6,717.4 L294.6,717.48 C294.48,717.52 294.36,717.48 294.28,717.48 C294.2,717.56 294.08,717.6 294,717.64 C293.92,717.64 293.8,717.6 293.72,717.64 C293.4,717.64 293.24,717.64 292.92,717.6 L292.92,717.56 C293.4,717.52 293.76,717.44 294.24,717.36 Z M292.72,715.8 L292.36,716.6 C292.28,716.72 292.24,716.84 292.12,716.84 C292.12,716.6 292.24,716.4 292.36,716.16 C292.72,715.28 292.6,715.4 292.88,714.92 C292.48,715.72 292.44,716.16 292.88,715.36 L292.72,715.8 Z M295.52,717.28 C295.8,717.24 296,717.2 296.28,717.2 C296.32,717.2 296.4,717.2 296.48,717.16 C296.32,717.08 296.28,717.08 296.2,717.08 C296.04,717.12 295.84,717.12 295.64,717.24 C295.48,717.12 295.52,717.24 295.48,717.28 C295.48,717.28 295.48,717.32 295.52,717.28 Z M290.36,721.8 L290.32,721.8 L290.28,721.76 C290.36,721.56 290.36,721.32 290.56,721.2 C290.56,721.4 290.48,721.6 290.36,721.8 Z M290.56,721.16 L290.56,720.8 C290.6,720.76 290.64,720.68 290.64,720.64 C290.72,720.84 290.68,721 290.56,721.16 Z M294.88,722.16 C294.84,722.24 294.84,722.32 294.84,722.4 L294.64,722.4 L294.88,722.16 Z M295.64,717 C296,716.88 295.88,716.84 295.72,716.88 C295.72,716.88 295.68,716.92 295.68,716.96 C295.64,716.96 295.64,716.96 295.64,717 Z M290.2,722.8 C290.2,722.84 290.16,722.84 290.16,722.84 L290.12,722.84 L290.12,722.68 C290.12,722.68 290.16,722.64 290.16,722.6 C290.2,722.64 290.2,722.68 290.2,722.68 L290.2,722.8 Z M294.36,712.48 L294.24,712.68 C294.24,712.6 294.28,712.52 294.28,712.44 L294.32,712.4 C294.32,712.44 294.36,712.44 294.36,712.48 Z M294.16,712.84 C294.16,712.84 294.12,712.84 294.08,712.88 C294.12,712.84 294.08,712.8 294.12,712.76 C294.16,712.76 294.2,712.72 294.24,712.68 L294.16,712.84 Z M293.96,713.24 C293.96,713.24 293.92,713.24 293.88,713.28 C293.88,713.24 293.88,713.2 293.92,713.2 C293.92,713.16 293.96,713.12 294,713.08 C294,713.12 294,713.2 293.96,713.24 Z M295.12,717.16 C295.04,717.16 295,717.12 294.96,717.12 C295,717.04 295.04,717.04 295.12,717.16 Z M292.08,716.88 L292.08,717.04 C292.04,717.04 292.04,717 292.04,717 L292,717 C292,716.96 292.04,716.92 292.08,716.88 Z M292.4,717.92 C292.36,717.92 292.36,717.96 292.32,717.96 L292.32,717.88 L292.36,717.88 C292.36,717.92 292.4,717.92 292.4,717.92 Z M292.28,718.08 L292.28,718.12 C292.28,718.08 292.24,718.08 292.24,718.04 C292.24,718.04 292.28,718 292.32,718 C292.32,718 292.32,718.04 292.28,718.08 Z M291.84,717.6 C291.840002,717.599998 291.880001,717.56 291.92,717.56 L291.88,717.64 C291.88,717.64 291.84,717.64 291.84,717.6 L291.84,717.6 Z M291.84,717.6 L291.8,717.56 L291.84,717.56 L291.84,717.6 Z M294.36,722.6 L294.4,722.64 C294.4,722.64 294.36,722.64 294.36,722.68 C294.36,722.64 294.32,722.64 294.32,722.64 C294.32,722.6 294.36,722.6 294.36,722.6 Z M294.96,717.12 L294.88,717.12 C294.88,717.08 294.92,717.08 294.96,717.12 Z M293.6,715.92 C293.6,715.92 293.64,715.92 293.64,715.96 C293.64,715.96 293.6,715.96 293.6,715.92 Z M294.36,717.12 L294.4,717.16 C294.4,717.2 294.36,717.16 294.36,717.12 Z M294.36,717.12 L294.32,717.12 C294.28,717.08 294.32,717.08 294.36,717.12 Z M294.92,717.36 L294.88,717.36 C294.84,717.32 294.92,717.36 294.92,717.36 Z M301.56,720.4 C301.56,720.32 301.64,720.24 301.68,720.16 C301.72,720.16 301.68,720.08 301.68,720.08 C301.64,720.08 301.6,720.04 301.56,720.08 L300.92,720.76 L299.24,722.52 C298.88,722.92 298.44,723.32 298.08,723.76 C297.76,724.08 297.4,724.28 297,724.2 L296.72,724.2 C296.52,724.2 296.36,724.12 296.32,723.92 C296.32,723.72 296.28,723.56 296.36,723.36 L296.44,723.04 C296.48,722.72 296.6,722.4 296.76,722.12 C296.8,722.04 296.84,721.96 296.88,721.96 C297,721.92 296.96,722.04 297.04,722.08 L297.68,722.48 C297.72,722.52 297.8,722.52 297.84,722.48 C298.16,722.44 298.4,722.24 298.64,722.04 C299.28,721.44 299.84,720.72 300.12,719.88 C300.24,719.6 300.36,719.08 300.2,718.84 C300.08,718.72 299.96,718.6 299.8,718.52 L299.44,718.36 C299,718.16 298.52,718.16 298.08,718.4 C297.96,718.44 297.88,718.52 297.76,718.6 C297.4,718.84 297.08,719.08 296.8,719.4 C296.52,719.76 296.16,720.08 295.96,720.48 C295.84,720.76 295.64,721.04 295.56,721.32 C295.48,721.68 295.32,721.96 295.32,722.32 C295.08,722.84 295.24,723.32 295.44,723.76 C295.72,724.4 296.2,724.84 296.84,725.12 C297.36,725.32 298.36,725 298.64,724.56 C299.08,724 299.6,723.48 299.96,722.84 C300.24,722.36 301.36,721.2 301.52,720.64 C301.56,720.56 301.52,720.48 301.56,720.4 Z M297.2,721.4 C297.28,721.24 297.4,721.12 297.48,721 C298.32,720.04 298.16,719.56 299.4,718.92 C299.4,718.92 299.44,718.92 299.48,718.96 C299.48,718.96 299.52,719 299.48,719.04 L299.2,719.88 C298.96,720.44 298.64,720.92 298.2,721.36 C298,721.56 297.76,721.6 297.48,721.64 C297.44,721.64 297.32,721.6 297.24,721.56 C297.12,721.52 297.12,721.52 297.2,721.4 Z M296.48,721.32 C296.36,721.44 296.24,721.72 296.2,721.84 C296.28,721.84 296.44,721.68 296.48,721.68 C296.32,721.84 296.28,721.92 296.28,722 L296.24,721.96 C296.2,721.88 296.16,721.88 296.12,721.92 L296.04,721.92 L296.04,721.8 L296.36,721.28 C296.44,721.16 296.8,720.72 296.8,720.8 C296.84,720.84 296.52,721.28 296.48,721.32 Z M295.92,722.48 C295.88,722.44 295.88,722.44 295.88,722.4 C295.88,722.28 295.96,722.04 296.04,721.96 L296.04,722.32 L296.12,722.32 L296.12,722.6 C296.12,722.64 296.08,722.64 296.04,722.64 L296.04,722.32 C295.96,722.32 295.96,722.36 295.96,722.44 C295.96,722.44 295.92,722.44 295.92,722.48 Z M295.96,722.8 C295.96,722.72 295.96,722.68 296.04,722.68 L296.04,722.8 L295.96,722.8 Z M296.2,722.2 C296.24,722.24 296.2,722.28 296.12,722.32 C296.12,722.28 296.12,722.24 296.16,722.2 C296.16,722.16 296.16,722.16 296.2,722.16 L296.2,722.2 Z M296.56,721.52 C296.56,721.52 296.56,721.56 296.6,721.56 C296.6,721.6 296.56,721.64 296.52,721.68 L296.52,721.56 C296.52,721.52 296.52,721.52 296.56,721.52 Z" id="update"></path>
        </g>
    </g>
</svg>